<?xml version="1.0" encoding="utf-8"?>
<!-- Generator: Adobe Illustrator 26.1.0, SVG Export Plug-In . SVG Version: 6.00 Build 0)  -->
<svg version="1.1" id="レイヤー_1" xmlns="http://www.w3.org/2000/svg" xmlns:xlink="http://www.w3.org/1999/xlink" x="0px"
	 y="0px" viewBox="0 0 48.7 57.2" style="enable-background:new 0 0 48.7 57.2;" xml:space="preserve">
<style type="text/css">
	.st0{fill:#FFFFFF;}
	
		.st1{clip-path:url(#SVGID_00000109023803194507978100000013444223575277861817_);fill:url(#SVGID_00000066515806478896906900000009826300356608206517_);}
	
		.st2{clip-path:url(#SVGID_00000109023803194507978100000013444223575277861817_);fill:url(#SVGID_00000104675818080522110070000004941463600299735966_);}
</style>
<rect class="st0" width="48.7" height="57.2"/>
<g>
	<g>
		<g>
			<path d="M48.7,57.2H0V0h48.7V57.2z M0.5,56.7h47.7V0.5H0.5V56.7z"/>
		</g>
	</g>
	<g>
		<g>
			<rect x="4.3" y="43.2" width="40.1" height="0.4"/>
			<g>
				<g>
					<g>
						<g>
							<path d="M15.6,39.9c-1,0-1.6-0.2-2.3-0.9l1.4-1.4c0.3,0.3,0.5,0.4,0.9,0.4c0.6,0,1.1-0.4,1.1-1.2v-5.5h2.1v5.6
								C18.7,38.9,17.1,39.9,15.6,39.9z"/>
							<path d="M24.4,36.8h-1.3v3H21v-8.5h3.4c1.9,0,2.9,1.3,2.9,2.7C27.3,35.5,26.3,36.8,24.4,36.8z M24.3,33.2h-1.2v1.7h1.2
								c0.6,0,0.9-0.4,0.9-0.9C25.2,33.6,24.9,33.2,24.3,33.2z"/>
							<path d="M33.1,39.8l-1.4-2.6l-1.4,2.6h-2.4l2.6-4.3l-2.5-4.1h2.4l1.2,2.4l1.2-2.4h2.4l-2.5,4.1l2.6,4.3H33.1z"/>
						</g>
						<g>
							<defs>
								<path id="SVGID_1_" d="M17.3,28.4l-4.2-2.2V8.4l4.2,2.2V28.4z M23.4,27l-4.2-2.2V7l4.2,2.2V27z M29.4,25.7l-4.2-2.2V5.7
									l4.2,2.2V25.7z M35.5,24.3l-4.2-2.2V4.3l4.2,2.2V24.3z"/>
							</defs>
							<clipPath id="SVGID_00000056396861351079515580000001130212317844512699_">
								<use xlink:href="#SVGID_1_"  style="overflow:visible;"/>
							</clipPath>
							
								<radialGradient id="SVGID_00000139988325661822988280000012275351472278542210_" cx="12.3281" cy="0.5115" r="35.4712" gradientUnits="userSpaceOnUse">
								<stop  offset="0.65" style="stop-color:#EB6120"/>
								<stop  offset="0.75" style="stop-color:#E60012"/>
							</radialGradient>
							
								<circle style="clip-path:url(#SVGID_00000056396861351079515580000001130212317844512699_);fill:url(#SVGID_00000139988325661822988280000012275351472278542210_);" cx="12.3" cy="0.5" r="35.5"/>
							
								<radialGradient id="SVGID_00000093866377460637776450000014304805858496560815_" cx="13.3489" cy="-1.5943" r="23.5632" gradientUnits="userSpaceOnUse">
								<stop  offset="0.6" style="stop-color:#E60012"/>
								<stop  offset="0.6697" style="stop-color:#D0000E"/>
								<stop  offset="0.781" style="stop-color:#AB0002"/>
								<stop  offset="0.8772" style="stop-color:#8E0000"/>
								<stop  offset="0.9533" style="stop-color:#7A0000"/>
								<stop  offset="1" style="stop-color:#730000"/>
							</radialGradient>
							
								<path style="clip-path:url(#SVGID_00000056396861351079515580000001130212317844512699_);fill:url(#SVGID_00000093866377460637776450000014304805858496560815_);" d="
								M36.9-1.6c0,13-10.5,23.6-23.6,23.6c-13,0-23.6-10.6-23.6-23.6S0.3-25.2,13.3-25.2C26.4-25.2,36.9-14.6,36.9-1.6z"/>
						</g>
					</g>
				</g>
			</g>
			<g>
				<g>
					<g>
						<g>
							<path d="M11,47.4h2.2c1.1,0,2.1,0.4,2.1,1.5c0,0.6-0.4,1-0.5,1.2c-0.3,0.3-0.9,0.5-1.7,0.5c-0.2,0-0.3,0-0.5,0V52
								c0,0.6,0.1,0.7,0.8,0.7v0.2H11v-0.2c0.7,0,0.7-0.2,0.7-0.8v-3.6c0-0.6-0.1-0.7-0.7-0.7V47.4z M12.6,50.1c0.2,0,0.3,0,0.4,0
								c0.3,0,1.3,0.1,1.3-1.2c0-1.2-1-1.2-1.4-1.2c-0.2,0-0.3,0-0.3,0.3V50.1z"/>
							<path d="M21.2,52.9h-1.4l-1.9-2.5l-0.3,0V52c0,0.6,0.1,0.7,0.7,0.7v0.2h-2.3v-0.2c0.7,0,0.7-0.2,0.7-0.8v-3.6
								c0-0.6-0.1-0.7-0.7-0.7v-0.2h2.3c0.7,0,2,0.2,2,1.4c0,1.1-1,1.3-1.5,1.4l1.7,2.1c0.2,0.2,0.4,0.4,0.7,0.4V52.9z M17.6,50
								c0.7,0,1.8,0,1.8-1.2c0-1.1-0.9-1.1-1.3-1.1c-0.4,0-0.5,0.1-0.5,0.3V50z"/>
							<path d="M21.6,52.7c0.7,0,0.8-0.2,0.8-0.7v-3.7c0-0.6-0.1-0.7-0.8-0.7v-0.2h2.5v0.2c-0.6,0-0.8,0.1-0.8,0.7V52
								c0,0.6,0.2,0.7,0.8,0.7v0.2h-2.5V52.7z"/>
							<path d="M37.4,52.9h-4.2v-0.2c0.5,0,0.7-0.2,0.7-0.9v-3.4c0-0.7-0.2-0.8-0.7-0.9v-0.2h4.1l0,1.3h-0.2
								c-0.1-0.7-0.3-0.9-1.2-0.9h-0.8c-0.2,0-0.3,0-0.3,0.3v1.6h0.8c0.7,0,0.8-0.2,0.9-0.8h0.2v2h-0.2c-0.1-0.7-0.2-0.8-0.9-0.8
								l-0.8,0v1.9c0,0.3-0.2,0.3,1,0.3c1,0,1.4-0.2,1.8-1.1h0.2L37.4,52.9z"/>
						</g>
					</g>
					<path d="M32.3,46.9v-0.2h-1.7l-1.9,4.7l-2-4h-1.7v0.2c0.6,0,0.8,0.1,0.8,0.7v3.4c0,0.9-0.2,1-0.8,1.1v0.2h2v-0.2
						c-0.6,0-0.8-0.2-0.8-1.1v-3.1l2.1,4.3h0.2l2.1-5.1v4.1c0,0.7-0.1,0.8-0.7,0.8v0.2h2.4v-0.2c-0.5,0-0.7-0.1-0.7-0.7v-4.3
						C31.6,47,31.8,46.9,32.3,46.9z"/>
				</g>
			</g>
		</g>
	</g>
</g>
</svg>
